Coordinates
version=1
nRows=15
nColumns=42
inDegrees=yes

Units are S.I. units (second, meters, Newtons, ...)
If the header above contains a line with 'inDegrees', this indicates whether rotational values are in degrees (yes) or radians (no).

endheader
time	pelvis_tilt	pelvis_list	pelvis_rotation	pelvis_tx	pelvis_ty	pelvis_tz	hip_flexion_r	hip_adduction_r	hip_rotation_r	knee_angle_r	knee_adduction_r	knee_angle_r_beta	ankle_angle_r	subtalar_angle_r	mtp_angle_r	hip_flexion_l	hip_adduction_l	hip_rotation_l	knee_angle_l	knee_adduction_l	knee_angle_l_beta	ankle_angle_l	subtalar_angle_l	mtp_angle_l	lumbar_extension	lumbar_bending	lumbar_rotation	arm_flex_r	arm_add_r	arm_rot_r	elbow_flex_r	pro_sup_r	wrist_flex_r	wrist_dev_r	arm_flex_l	arm_add_l	arm_rot_l	elbow_flex_l	pro_sup_l	wrist_flex_l	wrist_dev_l
      1.07000000	     14.80822074	      5.33527520	      0.15116446	     -0.23016149	      0.93752578	     -0.27676751	     14.17161519	     -2.90214291	     -6.02868610	     38.88436706	     -3.82214253	      0.67866023	      9.06488879	     -8.67821650	     -7.74610874	    -16.31488897	     14.26865935	    -24.56715637	     12.98766818	     -8.18261772	      0.22667757	     23.66158914	     28.37121044	     -7.74610874	    -46.02296608	     -7.77593448	     -4.46167969	      3.36703992	     -7.94427980	     11.24684441	     39.02851592	     90.00000001	      0.00000000	      0.00000000	     -5.78652406	    -14.09565837	     14.87169121	     49.10533026	     90.00000001	      0.00000000	      0.00000000
      1.08000000	     14.55478936	      5.58486755	     -0.24965413	     -0.22474980	      0.93595770	     -0.27626668	     14.94373094	     -2.92629659	     -6.12720277	     37.04299829	     -3.90345970	      0.64652228	      9.29131935	     -7.99599551	     -7.74285937	    -16.57163598	     14.81300735	    -24.72670824	     12.56682357	     -8.32597550	      0.21933245	     23.90954839	     28.28438053	     -7.74285937	    -45.71030443	     -8.20063190	     -4.38223501	      3.35662109	     -7.87552182	     11.26705998	     38.99380480	     90.00000001	      0.00000000	      0.00000000	     -5.88563184	    -14.13696344	     14.91328486	     48.95732243	     90.00000001	      0.00000000	      0.00000000
      1.09000000	     14.61503844	      5.62794491	     -0.62204532	     -0.21893029	      0.93512937	     -0.27566183	     15.02809348	     -2.69087576	     -6.46843111	     34.71562587	     -4.07527133	      0.60590197	      9.87819287	     -6.20568886	     -7.73813951	    -17.41875711	     15.02388282	    -24.72693991	     11.84301496	     -8.14358870	      0.20669960	     23.97524054	     28.45437179	     -7.73813951	    -45.69706940	     -8.39640998	     -4.11702928	      3.31872325	     -7.88725391	     11.22733169	     38.94261310	     90.00000001	      0.00000000	      0.00000000	     -5.93349630	    -14.11249851	     14.99178404	     48.75260070	     90.00000001	      0.00000000	      0.00000000
      1.10000000	     14.75555677	      5.83522046	     -0.81342850	     -0.21264778	      0.93415909	     -0.27554108	     15.22120844	     -2.90169242	     -8.75545705	     32.82579678	     -4.92096693	      0.57291823	     11.44350412	     -1.57828336	     -7.71752309	    -18.43934804	     15.38111758	    -24.49086739	     11.11650709	     -7.91504627	      0.19401965	     23.90712051	     28.37220651	     -7.71752309	    -45.72307030	     -8.60369567	     -4.10559353	      3.17269488	     -7.87620198	     11.23902686	     39.06502183	     90.00000001	      0.00000000	      0.00000000	     -6.08036399	    -14.18556481	     15.07021480	     48.73378361	     90.00000001	      0.00000000	      0.00000000
      1.11000000	     14.75697435	      5.94552284	     -1.15134252	     -0.20670675	      0.93297297	     -0.27496115	     15.41298448	     -2.76192908	     -9.52596103	     30.82889316	     -5.23124496	      0.53806569	     12.00118300	      0.31216730	     -7.70951350	    -19.12366405	     15.63583000	    -24.57372340	     10.62039815	     -7.76712838	      0.18536092	     23.99145922	     28.42822249	     -7.70951350	    -45.62721078	     -8.83087818	     -3.90678322	      3.09148140	     -7.86626412	     11.17142510	     39.08869290	     90.00000001	      0.00000000	      0.00000000	     -6.14400362	    -14.20549375	     15.14768830	     48.60782191	     90.00000001	      0.00000000	      0.00000000
      1.12000000	     14.64056784	      6.18053152	     -1.44206032	     -0.20066678	      0.93132649	     -0.27460640	     15.93207991	     -2.90916968	    -11.11873071	     29.29704506	     -5.75072733	      0.51132990	     12.96631027	      3.63440231	     -7.69393036	    -19.66837297	     16.11949286	    -24.42820693	     10.08698164	     -7.78788366	      0.17605104	     24.13336553	     28.36662737	     -7.69393036	    -45.40204968	     -9.13631641	     -3.80029833	      2.98459424	     -7.84879547	     11.17435954	     39.07247452	     90.00000001	      0.00000000	      0.00000000	     -6.23361147	    -14.25786836	     15.23758142	     48.54220608	     90.00000001	      0.00000000	      0.00000000
      1.13000000	     14.49374005	      6.47304886	     -1.85384262	     -0.19476133	      0.92950389	     -0.27406916	     16.55647661	     -3.10761909	    -11.64536908	     28.25055280	     -5.69138534	      0.49306516	     13.12236943	      3.66702199	     -7.69376124	    -20.02572633	     16.61146981	    -24.73303730	      9.83806095	     -7.74332456	      0.17170656	     24.34847581	     28.39201616	     -7.69376124	    -45.13803494	     -9.55642597	     -3.65882648	      2.91985962	     -7.83222749	     11.19378851	     39.02904161	     90.00000001	      0.00000000	      0.00000000	     -6.30923795	    -14.28819219	     15.25585806	     48.47337090	     90.00000001	      0.00000000	      0.00000000
      1.14000000	     14.52449158	      6.57307420	     -2.01718976	     -0.18824611	      0.92820648	     -0.27378385	     16.63374224	     -3.04357732	    -13.98900329	     26.50333666	     -6.62021177	      0.46257049	     14.46140180	      9.19042441	     -7.67737452	    -20.88276965	     16.94160118	    -24.06410476	      9.17940584	     -7.72157780	      0.16021086	     24.34927127	     28.01305280	     -7.67737452	    -45.03645390	     -9.63380642	     -3.54838969	      2.78467018	     -7.82718889	     11.09477370	     39.02156694	     90.00000001	      0.00000000	      0.00000000	     -6.38088407	    -14.34367456	     15.45026137	     48.30155717	     90.00000001	      0.00000000	      0.00000000
      1.15000000	     14.45637242	      6.76299966	     -2.24334371	     -0.18191213	      0.92660651	     -0.27344040	     16.93993804	     -3.12152285	    -15.45192388	     25.36416049	     -7.01734111	      0.44268811	     15.06089511	     11.70522297	     -7.66448438	    -21.47641152	     17.34018209	    -23.69058496	      8.77199788	     -7.70803362	      0.15310025	     24.43713294	     27.61391995	     -7.66448438	    -44.84513282	     -9.83058212	     -3.44408394	      2.67085814	     -7.81038466	     11.03411907	     38.99275926	     90.00000001	      0.00000000	      0.00000000	     -6.44302202	    -14.38697655	     15.56456467	     48.19292208	     90.00000001	      0.00000000	      0.00000000
      1.16000000	     14.33764452	      6.99932182	     -2.58597043	     -0.17562751	      0.92481697	     -0.27293482	     17.32930984	     -3.24057797	    -15.92641626	     24.67702715	     -6.96660602	      0.43069537	     15.17474123	     11.71642396	     -7.66426118	    -21.82859109	     17.74467776	    -23.83221292	      8.67139609	     -7.70098948	      0.15134441	     24.60229945	     27.60569907	     -7.66426118	    -44.59020354	    -10.13755861	     -3.26891512	      2.58214611	     -7.83026319	     11.04727288	     38.92818066	     90.00000001	      0.00000000	      0.00000000	     -6.52207267	    -14.38324438	     15.58395352	     48.12735950	     90.00000001	      0.00000000	      0.00000000
      1.17000000	     14.40979840	      7.00708468	     -2.60844192	     -0.16883106	      0.92367552	     -0.27269774	     17.16543306	     -3.06977322	    -17.93058964	     23.40511670	     -7.67572866	      0.40849635	     15.87319289	     15.44779994	     -7.65730585	    -22.69476663	     17.86756054	    -23.06366316	      8.21906231	     -7.64008005	      0.14344970	     24.65982507	     26.90356934	     -7.65730585	    -44.53988047	    -10.03809658	     -3.13989468	      2.42925864	     -7.80415172	     10.89751561	     38.86065660	     90.00000001	      0.00000000	      0.00000000	     -6.50272266	    -14.43321438	     15.82452760	     47.91053250	     90.00000001	      0.00000000	      0.00000000
      1.18000000	     14.30794855	      7.17668916	     -2.81409074	     -0.16225468	      0.92197982	     -0.27244646	     17.40684446	     -3.13202933	    -18.20378037	     23.09434313	     -7.63538121	      0.40307233	     15.92426187	     15.43247953	     -7.65710496	    -23.04108429	     18.15217999	    -23.08337070	      8.26456219	     -7.65348822	      0.14424382	     24.74566064	     26.89283175	     -7.65710496	    -44.29219300	    -10.16069717	     -3.05144450	      2.33432595	     -7.84519595	     10.90008976	     38.80787922	     90.00000001	      0.00000000	      0.00000000	     -6.63482945	    -14.41191863	     15.84279822	     47.85431644	     90.00000001	      0.00000000	      0.00000000
      1.19000000	     14.13482402	      7.38776860	     -2.96388537	     -0.15560554	      0.92034222	     -0.27200316	     17.55366630	     -3.13711158	    -18.78242038	     22.50210332	     -7.85268950	      0.39273579	     16.08751779	     15.64189375	     -7.65687158	    -23.38037270	     18.50282531	    -23.02852171	      8.07549691	     -7.74913670	      0.14094401	     25.00228234	     26.88539689	     -7.65687158	    -44.00067972	    -10.34489700	     -2.92267969	      2.20569560	     -7.81205799	     10.93702297	     38.67710595	     90.00000001	      0.00000000	      0.00000000	     -6.60010589	    -14.44390941	     15.87590837	     47.71317182	     90.00000001	      0.00000000	      0.00000000
      1.20000000	     14.19680340	      7.54236963	     -2.72295682	     -0.14823237	      0.91921328	     -0.27248804	     17.60305477	     -3.55632624	    -21.74657328	     22.47907678	     -8.59361653	      0.39233390	     16.99789912	     20.31992594	     -7.64495748	    -24.42064624	     18.85733763	    -21.16947612	      7.47189304	     -7.85249138	      0.13040913	     24.81982799	     25.25873410	     -7.64495748	    -43.91112219	    -10.16804163	     -3.08070543	      2.04792549	     -7.77568581	     10.82457673	     38.49516437	     90.00000001	      0.00000000	      0.00000000	     -6.66266720	    -14.47205035	     16.10921908	     47.47405208	     90.00000001	      0.00000000	      0.00000000
      1.21000000	     14.09616600	      7.65594507	     -2.75276641	     -0.14115887	      0.91783389	     -0.27228566	     17.57619923	     -3.54439456	    -21.87482813	     22.40435210	     -8.66215117	      0.39102971	     16.97957473	     20.26847761	     -7.64466313	    -24.77437489	     18.98522524	    -21.13802442	      7.59051581	     -7.90735042	      0.13247949	     24.86222033	     25.23987434	     -7.64466313	    -43.66576539	    -10.15191391	     -3.02023805	      1.89430471	     -7.78475101	     10.83035365	     38.41614597	     90.00000001	      0.00000000	      0.00000000	     -6.76695198	    -14.45424277	     16.12330845	     47.40635468	     90.00000001	      0.00000000	      0.00000000
